<svg width="1200" height="630" viewBox="0 0 1200 630" xmlns="http://www.w3.org/2000/svg">
  <defs>
    <linearGradient id="bgGrad" x1="0" y1="0" x2="1" y2="1">
      <stop offset="0%" stop-color="#09090B"/>
      <stop offset="100%" stop-color="#111113"/>
    </linearGradient>
    <linearGradient id="glowGrad" x1="0.5" y1="0" x2="0.5" y2="1">
      <stop offset="0%" stop-color="#7C3AED" stop-opacity="0.15"/>
      <stop offset="100%" stop-color="#7C3AED" stop-opacity="0"/>
    </linearGradient>
    <linearGradient id="accentGrad" x1="0" y1="0" x2="1" y2="1">
      <stop offset="0%" stop-color="#7C3AED"/>
      <stop offset="100%" stop-color="#22D3EE"/>
    </linearGradient>
    <linearGradient id="logoGrad" x1="0" y1="0" x2="1" y2="1">
      <stop offset="0%" stop-color="#7C3AED"/>
      <stop offset="100%" stop-color="#10B981"/>
    </linearGradient>
    <filter id="glow">
      <feGaussianBlur stdDeviation="60" result="blur"/>
      <feComposite in="SourceGraphic" in2="blur" operator="over"/>
    </filter>
  </defs>

  <!-- Background -->
  <rect width="1200" height="630" fill="url(#bgGrad)"/>

  <!-- Top glow -->
  <rect width="1200" height="400" fill="url(#glowGrad)"/>

  <!-- Subtle grid -->
  <g stroke="#27272A" stroke-width="0.5" opacity="0.3">
    <line x1="0" y1="0" x2="0" y2="630"/>
    <line x1="60" y1="0" x2="60" y2="630"/>
    <line x1="120" y1="0" x2="120" y2="630"/>
    <line x1="180" y1="0" x2="180" y2="630"/>
    <line x1="240" y1="0" x2="240" y2="630"/>
    <line x1="300" y1="0" x2="300" y2="630"/>
    <line x1="360" y1="0" x2="360" y2="630"/>
    <line x1="420" y1="0" x2="420" y2="630"/>
    <line x1="480" y1="0" x2="480" y2="630"/>
    <line x1="540" y1="0" x2="540" y2="630"/>
    <line x1="600" y1="0" x2="600" y2="630"/>
    <line x1="660" y1="0" x2="660" y2="630"/>
    <line x1="720" y1="0" x2="720" y2="630"/>
    <line x1="780" y1="0" x2="780" y2="630"/>
    <line x1="840" y1="0" x2="840" y2="630"/>
    <line x1="900" y1="0" x2="900" y2="630"/>
    <line x1="960" y1="0" x2="960" y2="630"/>
    <line x1="1020" y1="0" x2="1020" y2="630"/>
    <line x1="1080" y1="0" x2="1080" y2="630"/>
    <line x1="1140" y1="0" x2="1140" y2="630"/>
    <line x1="1200" y1="0" x2="1200" y2="630"/>
  </g>

  <!-- Logo mark -->
  <rect x="80" y="120" width="52" height="52" rx="12" fill="url(#logoGrad)"/>
  <text x="106" y="153" font-family="Inter, -apple-system, BlinkMacSystemFont, 'Segoe UI', Roboto, sans-serif" font-size="30" font-weight="800" fill="#FFFFFF" text-anchor="middle">Z</text>

  <!-- Title -->
  <text x="148" y="156" font-family="Inter, -apple-system, BlinkMacSystemFont, 'Segoe UI', Roboto, sans-serif" font-size="34" font-weight="700" fill="#FAFAFA" letter-spacing="-0.02em">ZeroPing</text>

  <!-- Tagline -->
  <text x="80" y="220" font-family="Inter, -apple-system, BlinkMacSystemFont, 'Segoe UI', Roboto, sans-serif" font-size="20" fill="#A1A1AA" letter-spacing="0.02em">Modern PHP Framework</text>

  <!-- Divider line -->
  <line x1="80" y1="260" x2="400" y2="260" stroke="url(#accentGrad)" stroke-width="3" stroke-linecap="round"/>

  <!-- Key points -->
  <text x="80" y="310" font-family="Inter, -apple-system, BlinkMacSystemFont, 'Segoe UI', Roboto, sans-serif" font-size="28" font-weight="600" fill="#FAFAFA" letter-spacing="-0.01em">
    <tspan x="80" dy="0">Fast.</tspan>
    <tspan x="80" dy="42">Simple.</tspan>
    <tspan x="80" dy="42">Elegant.</tspan>
  </text>

  <!-- Bottom section -->
  <line x1="80" y1="480" x2="600" y2="480" stroke="#27272A" stroke-width="1"/>

  <text x="80" y="520" font-family="Inter, -apple-system, BlinkMacSystemFont, 'Segoe UI', Roboto, sans-serif" font-size="16" fill="#52525B" letter-spacing="0.05em">zeroping.dev</text>

  <rect x="480" y="503" width="80" height="28" rx="6" fill="none" stroke="#27272A" stroke-width="1"/>
  <text x="520" y="522" font-family="Inter, -apple-system, BlinkMacSystemFont, 'Segoe UI', Roboto, sans-serif" font-size="14" font-weight="600" fill="#7C3AED" text-anchor="middle">v1.2</text>

  <!-- Decorative glow orbs -->
  <circle cx="1050" cy="120" r="180" fill="#7C3AED" opacity="0.04"/>
  <circle cx="950" cy="500" r="140" fill="#22D3EE" opacity="0.03"/>
</svg>
