<svg width="1200" height="630" viewBox="0 0 1200 630" xmlns="http://www.w3.org/2000/svg">
  <defs>
    <linearGradient id="bgGrad" x1="0" y1="0" x2="1" y2="1">
      <stop offset="0%" stop-color="#0B1120"/>
      <stop offset="100%" stop-color="#111827"/>
    </linearGradient>
    <linearGradient id="accentGrad" x1="0" y1="0" x2="1" y2="1">
      <stop offset="0%" stop-color="#22D3EE"/>
      <stop offset="100%" stop-color="#4ADE80"/>
    </linearGradient>
    <linearGradient id="glowGrad" x1="0.5" y1="0" x2="0.5" y2="1">
      <stop offset="0%" stop-color="#22D3EE" stop-opacity="0.12"/>
      <stop offset="100%" stop-color="#22D3EE" stop-opacity="0"/>
    </linearGradient>
    <filter id="glow">
      <feGaussianBlur stdDeviation="40" result="blur"/>
      <feComposite in="SourceGraphic" in2="blur" operator="over"/>
    </filter>
  </defs>
  <rect width="1200" height="630" fill="url(#bgGrad)"/>
  <rect width="1200" height="400" fill="url(#glowGrad)"/>
  <g stroke="#1F2937" stroke-width="0.5" opacity="0.4">
    <line x1="0" y1="0" x2="0" y2="630"/><line x1="80" y1="0" x2="80" y2="630"/>
    <line x1="160" y1="0" x2="160" y2="630"/><line x1="240" y1="0" x2="240" y2="630"/>
    <line x1="320" y1="0" x2="320" y2="630"/><line x1="400" y1="0" x2="400" y2="630"/>
    <line x1="480" y1="0" x2="480" y2="630"/><line x1="560" y1="0" x2="560" y2="630"/>
    <line x1="640" y1="0" x2="640" y2="630"/><line x1="720" y1="0" x2="720" y2="630"/>
    <line x1="800" y1="0" x2="800" y2="630"/><line x1="880" y1="0" x2="880" y2="630"/>
    <line x1="960" y1="0" x2="960" y2="630"/><line x1="1040" y1="0" x2="1040" y2="630"/>
    <line x1="1120" y1="0" x2="1120" y2="630"/><line x1="1200" y1="0" x2="1200" y2="630"/>
  </g>
  <rect x="80" y="110" width="56" height="56" rx="14" fill="url(#accentGrad)"/>
  <text x="108" y="148" font-family="Arial, sans-serif" font-size="34" font-weight="800" fill="#0B1120" text-anchor="middle">Z</text>
  <text x="152" y="150" font-family="Space Grotesk, Arial, sans-serif" font-size="36" font-weight="700" fill="#F8FAFC" letter-spacing="-0.03em">ZeroPing</text>
  <text x="80" y="215" font-family="Inter, Arial, sans-serif" font-size="22" fill="#94A3B8" letter-spacing="0.02em">Modern PHP Framework</text>
  <line x1="80" y1="255" x2="380" y2="255" stroke="url(#accentGrad)" stroke-width="3" stroke-linecap="round"/>
  <text x="80" y="310" font-family="Inter, Arial, sans-serif" font-size="30" font-weight="600" fill="#F8FAFC">
    <tspan x="80" dy="0">Fast. Simple. Elegant.</tspan>
  </text>
  <rect x="80" y="400" width="520" height="48" rx="10" fill="#111827" stroke="#1F2937" stroke-width="1"/>
  <text x="100" y="430" font-family="JetBrains Mono, monospace" font-size="16" fill="#22D3EE" letter-spacing="-0.01em">$ composer create-project rith-1437/zero-ping blog</text>
  <line x1="80" y1="490" x2="500" y2="490" stroke="#1F2937" stroke-width="1"/>
  <text x="80" y="530" font-family="Inter, Arial, sans-serif" font-size="16" fill="#52525B" letter-spacing="0.05em">zeroping.dev</text>
  <rect x="460" y="512" width="80" height="28" rx="6" fill="none" stroke="#1F2937" stroke-width="1"/>
  <text x="500" y="532" font-family="Inter, Arial, sans-serif" font-size="14" font-weight="600" fill="#22D3EE" text-anchor="middle">v1.2</text>
  <circle cx="1050" cy="140" r="180" fill="#22D3EE" opacity="0.03"/>
  <circle cx="950" cy="500" r="140" fill="#4ADE80" opacity="0.03"/>
</svg>
